<?xml version="1.0" encoding="UTF-8"?>
<?xml-model href="https://raw.githubusercontent.com/Thiago-Morais/DecentSampler-schema/refs/heads/development/DecentSampler.xsd"?>
<DecentSampler>
	<effects>
		<effect type="highpass" frequency="100.0" />
		<effect type="chorus" mix="0.1377191245555878" modDepth="0.2" modRate="0.2" />
		<effect type="delay" delayTimeFormat="musical_time" delayTime="10" stereoOffset="0.01" feedback="0.3" wetLevel="0.5" />
		<effect type="reverb" wetLevel="1.0" />
	</effects>
	<ui width="812" height="375" bgImage="Resources/Images/Trumpet.png">
		<tab name="main">
			<labeled-knob x="565" y="25" width="90" textSize="20" textColor="FF000000" trackForegroundColor="CC000000" trackBackgroundColor="66999999" label="Attack" type="float" minValue="0.0" maxValue="4.0" value="0.01">
				<binding type="amp" level="instrument" position="0" parameter="ENV_ATTACK" />
			</labeled-knob>
			<labeled-knob x="635" y="25" width="90" textSize="20" textColor="FF000000" trackForegroundColor="CC000000" trackBackgroundColor="66999999" label="Release" type="float" minValue="0.0" maxValue="20.0" value="0.16">
				<binding type="amp" level="instrument" position="0" parameter="ENV_RELEASE" />
			</labeled-knob>
			<labeled-knob x="705" y="25" width="90" textSize="20" textColor="FF000000" trackForegroundColor="CC000000" trackBackgroundColor="66999999" label="Highpass" type="float" minValue="0" maxValue="1" value="0">
				<binding type="effect" level="instrument" position="0" parameter="FX_FILTER_FREQUENCY" translation="table" translationTable="0,33;0.3,150;0.4,450;0.5,1100;0.7,4100;0.9,11000;11,22000" />
			</labeled-knob>
			<labeled-knob x="565" y="115" width="90" textSize="20" textColor="FF000000" trackForegroundColor="CC000000" trackBackgroundColor="66999999" label="Chorus" type="float" minValue="0.0" maxValue="1" value="0">
				<binding type="effect" level="instrument" position="1" parameter="FX_MIX" />
			</labeled-knob>
			<labeled-knob x="635" y="115" width="90" textSize="20" textColor="FF000000" trackForegroundColor="CC000000" trackBackgroundColor="66999999" label="Delay" type="musical_time" minValue="0" maxValue="20" value="0" defaultValue="0">
				<binding type="effect" level="instrument" position="2" parameter="FX_DELAY_TIME" />
			</labeled-knob>
			<labeled-knob x="705" y="115" width="90" textSize="20" textColor="FF000000" trackForegroundColor="CC000000" trackBackgroundColor="66999999" label="Reverb" type="float" minValue="0.0" maxValue="1" value="0">
				<binding type="effect" level="instrument" position="3" parameter="FX_REVERB_WET_LEVEL" />
			</labeled-knob>
			<labeled-knob x="230" y="140" width="70" textSize="20" textColor="FF000000" trackForegroundColor="CC000000" trackBackgroundColor="66999999" label="Dynamics" type="float" minValue="0" maxValue="1" value="1">
				<binding type="amp" level="instrument" parameter="AMP_VOLUME" translation="linear" translationOutputMin="0" translationOutputMax="1" />
				<!-- Cross fade between 2 samples -->
				<binding type="amp" level="tag" parameter="TAG_VOLUME" identifier="2-dynamics-ff" translation="table" translationTable="0.0,0;0.5,0;1.0,1" />
				<binding type="amp" level="tag" parameter="TAG_VOLUME" identifier="2-dynamics-mp" translation="table" translationTable="0.0,1;0.5,1;1.0,0" />
				<!-- Cross fade between 3 samples -->
				<binding type="amp" level="tag" parameter="TAG_VOLUME" identifier="3-dynamics-ff" translation="table" translationTable="0.0,0;0.23,0;0.43,0;0.66,0;1.0,1" />
				<binding type="amp" level="tag" parameter="TAG_VOLUME" identifier="3-dynamics-mf" translation="table" translationTable="0.0,0;0.23,0;0.43,1;0.66,1;1.0,0" />
				<binding type="amp" level="tag" parameter="TAG_VOLUME" identifier="3-dynamics-mp" translation="table" translationTable="0.0,1;0.23,1;0.43,0;0.66,0;1.0,0" />
			</labeled-knob>
		</tab>
		<keyboard />
	</ui>
	<groups attack="0.030" release="0.024" ampVelTrack="0">
		<group name="Group 1">
			<sample rootNote="67" loNote="66" hiNote="67" loVel="75" hiVel="127" end="225797" path="Resources/Trumpet - Ensemble Samples/3_G.wav" tuning="-0.10" />
			<sample rootNote="68" loNote="68" hiNote="68" loVel="75" hiVel="127" end="219393" path="Resources/Trumpet - Ensemble Samples/3_Ab.wav" tuning="-0.10" />
			<sample rootNote="70" loNote="69" hiNote="70" loVel="75" hiVel="127" end="194463" path="Resources/Trumpet - Ensemble Samples/3_Bb.wav" tuning="-0.10" />
			<sample rootNote="72" loNote="71" hiNote="72" loVel="75" hiVel="127" end="222710" path="Resources/Trumpet - Ensemble Samples/4_C.wav" tuning="-0.10" />
			<sample rootNote="74" loNote="73" hiNote="74" loVel="75" hiVel="127" end="238172" path="Resources/Trumpet - Ensemble Samples/4_D.wav" tuning="-0.10" />
			<sample rootNote="76" loNote="75" hiNote="76" loVel="75" hiVel="127" end="236066" path="Resources/Trumpet - Ensemble Samples/4_E.wav" tuning="-0.10" />
			<sample rootNote="77" loNote="77" hiNote="77" loVel="75" hiVel="127" end="157200" path="Resources/Trumpet - Ensemble Samples/4_F.wav" tuning="-0.10" />
			<sample rootNote="79" loNote="78" hiNote="79" loVel="75" hiVel="127" end="206317" path="Resources/Trumpet - Ensemble Samples/4_G.wav" tuning="-0.10" />
			<sample rootNote="81" loNote="80" hiNote="81" loVel="75" hiVel="127" end="185370" path="Resources/Trumpet - Ensemble Samples/4_A.wav" tuning="-0.10" />
			<sample rootNote="82" loNote="82" hiNote="82" loVel="75" hiVel="127" end="220451" path="Resources/Trumpet - Ensemble Samples/4_Bb.wav" tuning="-0.10" />
			<sample rootNote="84" loNote="83" hiNote="84" loVel="75" hiVel="127" end="134661" path="Resources/Trumpet - Ensemble Samples/5_C.wav" tuning="-0.10" />
			<sample rootNote="86" loNote="85" hiNote="86" loVel="75" hiVel="127" end="174803" path="Resources/Trumpet - Ensemble Samples/5_D.wav" tuning="-0.10" />
			<sample rootNote="87" loNote="87" hiNote="87" loVel="75" hiVel="127" end="160980" path="Resources/Trumpet - Ensemble Samples/5_Eb.wav" tuning="-0.10" />
			<sample rootNote="89" loNote="88" hiNote="89" loVel="75" hiVel="127" end="156922" path="Resources/Trumpet - Ensemble Samples/5_F.wav" tuning="-0.10" />
			<sample rootNote="91" loNote="90" hiNote="91" loVel="75" hiVel="127" end="156416" path="Resources/Trumpet - Ensemble Samples/5_G.wav" tuning="-0.10" />
			<sample rootNote="93" loNote="92" hiNote="93" loVel="75" hiVel="127" end="167643" path="Resources/Trumpet - Ensemble Samples/5_A.wav" tuning="-0.10" />
			<sample rootNote="95" loNote="94" hiNote="95" loVel="75" hiVel="127" end="158708" path="Resources/Trumpet - Ensemble Samples/5_B.wav" tuning="-0.10" />
			<sample rootNote="97" loNote="96" hiNote="96" loVel="75" hiVel="127" end="130560" path="Resources/Trumpet - Ensemble Samples/6_Db.wav" tuning="-0.10" />
		</group>
		<group name="Group 2">
			<sample rootNote="70" loNote="66" hiNote="72" loVel="0" hiVel="127" end="123378" path="Resources/Trumpet - Ensemble Samples/3_Bb_p.wav" tuning="-0.10" />
			<sample rootNote="75" loNote="73" hiNote="77" loVel="0" hiVel="127" end="119073" path="Resources/Trumpet - Ensemble Samples/4_Eb_p.wav" tuning="-0.10" />
			<sample rootNote="80" loNote="78" hiNote="82" loVel="0" hiVel="127" end="94724" path="Resources/Trumpet - Ensemble Samples/4_Ab_p.wav" tuning="-0.10" />
			<sample rootNote="85" loNote="83" hiNote="88" loVel="0" hiVel="127" end="135166" path="Resources/Trumpet - Ensemble Samples/5_Db_p.wav" tuning="-0.10" />
			<sample rootNote="92" loNote="89" hiNote="96" loVel="0" hiVel="127" end="86130" path="Resources/Trumpet - Ensemble Samples/5_Ab_p.wav" tuning="-0.10" />
		</group>
		<group name="Group 3">
			<sample rootNote="67" loNote="66" hiNote="67" loVel="75" hiVel="127" end="225797" path="Resources/Trumpet - Ensemble Samples/3_G.wav" tuning="-0.10" />
			<sample rootNote="68" loNote="68" hiNote="68" loVel="75" hiVel="127" end="219393" path="Resources/Trumpet - Ensemble Samples/3_Ab.wav" tuning="-0.10" />
			<sample rootNote="70" loNote="69" hiNote="70" loVel="75" hiVel="127" end="194463" path="Resources/Trumpet - Ensemble Samples/3_Bb.wav" tuning="-0.10" />
			<sample rootNote="72" loNote="71" hiNote="72" loVel="75" hiVel="127" end="222710" path="Resources/Trumpet - Ensemble Samples/4_C.wav" tuning="-0.10" />
			<sample rootNote="74" loNote="73" hiNote="74" loVel="75" hiVel="127" end="238172" path="Resources/Trumpet - Ensemble Samples/4_D.wav" tuning="-0.10" />
			<sample rootNote="76" loNote="75" hiNote="76" loVel="75" hiVel="127" end="236066" path="Resources/Trumpet - Ensemble Samples/4_E.wav" tuning="-0.10" />
			<sample rootNote="77" loNote="77" hiNote="77" loVel="75" hiVel="127" end="157200" path="Resources/Trumpet - Ensemble Samples/4_F.wav" tuning="-0.10" />
			<sample rootNote="79" loNote="78" hiNote="79" loVel="75" hiVel="127" end="206317" path="Resources/Trumpet - Ensemble Samples/4_G.wav" tuning="-0.10" />
			<sample rootNote="81" loNote="80" hiNote="81" loVel="75" hiVel="127" end="185370" path="Resources/Trumpet - Ensemble Samples/4_A.wav" tuning="-0.10" />
			<sample rootNote="82" loNote="82" hiNote="82" loVel="75" hiVel="127" end="220451" path="Resources/Trumpet - Ensemble Samples/4_Bb.wav" tuning="-0.10" />
			<sample rootNote="84" loNote="83" hiNote="84" loVel="75" hiVel="127" end="134661" path="Resources/Trumpet - Ensemble Samples/5_C.wav" tuning="-0.10" />
			<sample rootNote="86" loNote="85" hiNote="86" loVel="75" hiVel="127" end="174803" path="Resources/Trumpet - Ensemble Samples/5_D.wav" tuning="-0.10" />
			<sample rootNote="87" loNote="87" hiNote="87" loVel="75" hiVel="127" end="160980" path="Resources/Trumpet - Ensemble Samples/5_Eb.wav" tuning="-0.10" />
			<sample rootNote="89" loNote="88" hiNote="89" loVel="75" hiVel="127" end="156922" path="Resources/Trumpet - Ensemble Samples/5_F.wav" tuning="-0.10" />
			<sample rootNote="91" loNote="90" hiNote="91" loVel="75" hiVel="127" end="156416" path="Resources/Trumpet - Ensemble Samples/5_G.wav" tuning="-0.10" />
			<sample rootNote="93" loNote="92" hiNote="93" loVel="75" hiVel="127" end="167643" path="Resources/Trumpet - Ensemble Samples/5_A.wav" tuning="-0.10" />
			<sample rootNote="95" loNote="94" hiNote="95" loVel="75" hiVel="127" end="158708" path="Resources/Trumpet - Ensemble Samples/5_B.wav" tuning="-0.10" />
			<sample rootNote="97" loNote="96" hiNote="96" loVel="75" hiVel="127" end="130560" path="Resources/Trumpet - Ensemble Samples/6_Db.wav" tuning="-0.10" />
		</group>
		<group name="Group 4">
			<sample rootNote="70" loNote="66" hiNote="72" loVel="0" hiVel="127" end="123378" path="Resources/Trumpet - Ensemble Samples/3_Bb_p.wav" tuning="-0.10" />
			<sample rootNote="75" loNote="73" hiNote="77" loVel="0" hiVel="127" end="119073" path="Resources/Trumpet - Ensemble Samples/4_Eb_p.wav" tuning="-0.10" />
			<sample rootNote="80" loNote="78" hiNote="82" loVel="0" hiVel="127" end="94724" path="Resources/Trumpet - Ensemble Samples/4_Ab_p.wav" tuning="-0.10" />
			<sample rootNote="85" loNote="83" hiNote="88" loVel="0" hiVel="127" end="135166" path="Resources/Trumpet - Ensemble Samples/5_Db_p.wav" tuning="-0.10" />
			<sample rootNote="92" loNote="89" hiNote="96" loVel="0" hiVel="127" end="86130" path="Resources/Trumpet - Ensemble Samples/5_Ab_p.wav" tuning="-0.10" />
		</group>
		<group name="Group 5">
			<sample rootNote="67" loNote="66" hiNote="67" loVel="75" hiVel="127" end="225797" path="Resources/Trumpet - Ensemble Samples/3_G.wav" tuning="-0.10" volume="3.5dB" />
			<sample rootNote="68" loNote="68" hiNote="68" loVel="75" hiVel="127" end="219393" path="Resources/Trumpet - Ensemble Samples/3_Ab.wav" tuning="-0.10" />
			<sample rootNote="70" loNote="69" hiNote="70" loVel="75" hiVel="127" end="194463" path="Resources/Trumpet - Ensemble Samples/3_Bb.wav" tuning="-0.10" volume="3.0dB" />
			<sample rootNote="72" loNote="71" hiNote="72" loVel="75" hiVel="127" end="222710" path="Resources/Trumpet - Ensemble Samples/4_C.wav" tuning="-0.10" volume="3.5dB" />
			<sample rootNote="74" loNote="73" hiNote="74" loVel="75" hiVel="127" end="238172" path="Resources/Trumpet - Ensemble Samples/4_D.wav" tuning="-0.10" volume="3.5dB" />
			<sample rootNote="76" loNote="75" hiNote="76" loVel="75" hiVel="127" end="236066" path="Resources/Trumpet - Ensemble Samples/4_E.wav" tuning="-0.10" volume="1.5dB" />
			<sample rootNote="77" loNote="77" hiNote="77" loVel="75" hiVel="127" end="157200" path="Resources/Trumpet - Ensemble Samples/4_F.wav" tuning="-0.10" volume="1.0dB" />
			<sample rootNote="79" loNote="78" hiNote="79" loVel="75" hiVel="127" end="206317" path="Resources/Trumpet - Ensemble Samples/4_G.wav" tuning="-0.10" volume="4.0dB" />
			<sample rootNote="81" loNote="80" hiNote="81" loVel="75" hiVel="127" end="185370" path="Resources/Trumpet - Ensemble Samples/4_A.wav" tuning="-0.10" volume="3.0dB" />
			<sample rootNote="82" loNote="82" hiNote="82" loVel="75" hiVel="127" end="220451" path="Resources/Trumpet - Ensemble Samples/4_Bb.wav" tuning="-0.10" volume="3.0dB" />
			<sample rootNote="84" loNote="83" hiNote="84" loVel="75" hiVel="127" end="134661" path="Resources/Trumpet - Ensemble Samples/5_C.wav" tuning="-0.10" volume="2.5dB" />
			<sample rootNote="86" loNote="85" hiNote="86" loVel="75" hiVel="127" end="174803" path="Resources/Trumpet - Ensemble Samples/5_D.wav" tuning="-0.10" volume="2.5dB" />
			<sample rootNote="87" loNote="87" hiNote="87" loVel="75" hiVel="127" end="160980" path="Resources/Trumpet - Ensemble Samples/5_Eb.wav" tuning="-0.10" />
			<sample rootNote="89" loNote="88" hiNote="89" loVel="75" hiVel="127" end="156922" path="Resources/Trumpet - Ensemble Samples/5_F.wav" tuning="-0.10" volume="1.0dB" />
			<sample rootNote="91" loNote="90" hiNote="91" loVel="75" hiVel="127" end="156416" path="Resources/Trumpet - Ensemble Samples/5_G.wav" tuning="-0.10" />
			<sample rootNote="93" loNote="92" hiNote="93" loVel="75" hiVel="127" end="167643" path="Resources/Trumpet - Ensemble Samples/5_A.wav" tuning="-0.10" volume="3.5dB" />
			<sample rootNote="95" loNote="94" hiNote="95" loVel="75" hiVel="127" end="158708" path="Resources/Trumpet - Ensemble Samples/5_B.wav" tuning="-0.10" volume="1.0dB" />
			<sample rootNote="97" loNote="96" hiNote="96" loVel="75" hiVel="127" end="130560" path="Resources/Trumpet - Ensemble Samples/6_Db.wav" tuning="-0.10" volume="1.0dB" />
		</group>
		<group name="Group 6">
			<sample rootNote="70" loNote="66" hiNote="72" loVel="0" hiVel="127" end="123378" path="Resources/Trumpet - Ensemble Samples/3_Bb_p.wav" tuning="-0.10" volume="3.5dB" />
			<sample rootNote="75" loNote="73" hiNote="77" loVel="0" hiVel="127" end="119073" path="Resources/Trumpet - Ensemble Samples/4_Eb_p.wav" tuning="-0.10" volume="3.5dB" />
			<sample rootNote="80" loNote="78" hiNote="82" loVel="0" hiVel="127" end="94724" path="Resources/Trumpet - Ensemble Samples/4_Ab_p.wav" tuning="-0.10" volume="4.0dB" />
			<sample rootNote="85" loNote="83" hiNote="88" loVel="0" hiVel="127" end="135166" path="Resources/Trumpet - Ensemble Samples/5_Db_p.wav" tuning="-0.10" volume="2.5dB" />
			<sample rootNote="92" loNote="89" hiNote="96" loVel="0" hiVel="127" end="86130" path="Resources/Trumpet - Ensemble Samples/5_Ab_p.wav" tuning="-0.10" volume="1.0dB" />
		</group>
		<group name="Group 7">
			<sample rootNote="67" loNote="66" hiNote="67" loVel="75" hiVel="127" end="225797" path="Resources/Trumpet - Ensemble Samples/3_G.wav" tuning="-0.10" />
			<sample rootNote="68" loNote="68" hiNote="68" loVel="75" hiVel="127" end="219393" path="Resources/Trumpet - Ensemble Samples/3_Ab.wav" tuning="-0.10" />
			<sample rootNote="70" loNote="69" hiNote="70" loVel="75" hiVel="127" end="194463" path="Resources/Trumpet - Ensemble Samples/3_Bb.wav" tuning="-0.10" />
			<sample rootNote="72" loNote="71" hiNote="72" loVel="75" hiVel="127" end="222710" path="Resources/Trumpet - Ensemble Samples/4_C.wav" tuning="-0.10" />
			<sample rootNote="74" loNote="73" hiNote="74" loVel="75" hiVel="127" end="238172" path="Resources/Trumpet - Ensemble Samples/4_D.wav" tuning="-0.10" />
			<sample rootNote="76" loNote="75" hiNote="76" loVel="75" hiVel="127" end="236066" path="Resources/Trumpet - Ensemble Samples/4_E.wav" tuning="-0.10" />
			<sample rootNote="77" loNote="77" hiNote="77" loVel="75" hiVel="127" end="157200" path="Resources/Trumpet - Ensemble Samples/4_F.wav" tuning="-0.10" />
			<sample rootNote="79" loNote="78" hiNote="79" loVel="75" hiVel="127" end="206317" path="Resources/Trumpet - Ensemble Samples/4_G.wav" tuning="-0.10" />
			<sample rootNote="81" loNote="80" hiNote="81" loVel="75" hiVel="127" end="185370" path="Resources/Trumpet - Ensemble Samples/4_A.wav" tuning="-0.10" />
			<sample rootNote="82" loNote="82" hiNote="82" loVel="75" hiVel="127" end="220451" path="Resources/Trumpet - Ensemble Samples/4_Bb.wav" tuning="-0.10" />
			<sample rootNote="84" loNote="83" hiNote="84" loVel="75" hiVel="127" end="134661" path="Resources/Trumpet - Ensemble Samples/5_C.wav" tuning="-0.10" />
			<sample rootNote="86" loNote="85" hiNote="86" loVel="75" hiVel="127" end="174803" path="Resources/Trumpet - Ensemble Samples/5_D.wav" tuning="-0.10" />
			<sample rootNote="87" loNote="87" hiNote="87" loVel="75" hiVel="127" end="160980" path="Resources/Trumpet - Ensemble Samples/5_Eb.wav" tuning="-0.10" />
			<sample rootNote="89" loNote="88" hiNote="89" loVel="75" hiVel="127" end="156922" path="Resources/Trumpet - Ensemble Samples/5_F.wav" tuning="-0.10" />
			<sample rootNote="91" loNote="90" hiNote="91" loVel="75" hiVel="127" end="156416" path="Resources/Trumpet - Ensemble Samples/5_G.wav" tuning="-0.10" />
			<sample rootNote="93" loNote="92" hiNote="93" loVel="75" hiVel="127" end="167643" path="Resources/Trumpet - Ensemble Samples/5_A.wav" tuning="-0.10" />
			<sample rootNote="95" loNote="94" hiNote="95" loVel="75" hiVel="127" end="158708" path="Resources/Trumpet - Ensemble Samples/5_B.wav" tuning="-0.10" />
			<sample rootNote="97" loNote="96" hiNote="96" loVel="75" hiVel="127" end="130560" path="Resources/Trumpet - Ensemble Samples/6_Db.wav" tuning="-0.10" />
		</group>
		<group name="Group 8">
			<sample rootNote="70" loNote="66" hiNote="72" loVel="0" hiVel="127" end="123378" path="Resources/Trumpet - Ensemble Samples/3_Bb_p.wav" tuning="-0.10" />
			<sample rootNote="75" loNote="73" hiNote="77" loVel="0" hiVel="127" end="119073" path="Resources/Trumpet - Ensemble Samples/4_Eb_p.wav" tuning="-0.10" />
			<sample rootNote="80" loNote="78" hiNote="82" loVel="0" hiVel="127" end="94724" path="Resources/Trumpet - Ensemble Samples/4_Ab_p.wav" tuning="-0.10" />
			<sample rootNote="85" loNote="83" hiNote="88" loVel="0" hiVel="127" end="135166" path="Resources/Trumpet - Ensemble Samples/5_Db_p.wav" tuning="-0.10" />
			<sample rootNote="92" loNote="89" hiNote="96" loVel="0" hiVel="127" end="86130" path="Resources/Trumpet - Ensemble Samples/5_Ab_p.wav" tuning="-0.10" />
		</group>
		<group name="Group 9">
			<sample rootNote="67" loNote="66" hiNote="67" loVel="75" hiVel="127" end="225797" path="Resources/Trumpet - Ensemble Samples/3_G.wav" tuning="-0.10" volume="3.5dB" />
			<sample rootNote="68" loNote="68" hiNote="68" loVel="75" hiVel="127" end="219393" path="Resources/Trumpet - Ensemble Samples/3_Ab.wav" tuning="-0.10" />
			<sample rootNote="70" loNote="69" hiNote="70" loVel="75" hiVel="127" end="194463" path="Resources/Trumpet - Ensemble Samples/3_Bb.wav" tuning="-0.10" volume="3.0dB" />
			<sample rootNote="72" loNote="71" hiNote="72" loVel="75" hiVel="127" end="222710" path="Resources/Trumpet - Ensemble Samples/4_C.wav" tuning="-0.10" volume="3.5dB" />
			<sample rootNote="74" loNote="73" hiNote="74" loVel="75" hiVel="127" end="238172" path="Resources/Trumpet - Ensemble Samples/4_D.wav" tuning="-0.10" volume="3.5dB" />
			<sample rootNote="76" loNote="75" hiNote="76" loVel="75" hiVel="127" end="236066" path="Resources/Trumpet - Ensemble Samples/4_E.wav" tuning="-0.10" volume="1.5dB" />
			<sample rootNote="77" loNote="77" hiNote="77" loVel="75" hiVel="127" end="157200" path="Resources/Trumpet - Ensemble Samples/4_F.wav" tuning="-0.10" volume="1.0dB" />
			<sample rootNote="79" loNote="78" hiNote="79" loVel="75" hiVel="127" end="206317" path="Resources/Trumpet - Ensemble Samples/4_G.wav" tuning="-0.10" volume="4.0dB" />
			<sample rootNote="81" loNote="80" hiNote="81" loVel="75" hiVel="127" end="185370" path="Resources/Trumpet - Ensemble Samples/4_A.wav" tuning="-0.10" volume="3.0dB" />
			<sample rootNote="82" loNote="82" hiNote="82" loVel="75" hiVel="127" end="220451" path="Resources/Trumpet - Ensemble Samples/4_Bb.wav" tuning="-0.10" volume="3.0dB" />
			<sample rootNote="84" loNote="83" hiNote="84" loVel="75" hiVel="127" end="134661" path="Resources/Trumpet - Ensemble Samples/5_C.wav" tuning="-0.10" volume="2.5dB" />
			<sample rootNote="86" loNote="85" hiNote="86" loVel="75" hiVel="127" end="174803" path="Resources/Trumpet - Ensemble Samples/5_D.wav" tuning="-0.10" volume="2.5dB" />
			<sample rootNote="87" loNote="87" hiNote="87" loVel="75" hiVel="127" end="160980" path="Resources/Trumpet - Ensemble Samples/5_Eb.wav" tuning="-0.10" />
			<sample rootNote="89" loNote="88" hiNote="89" loVel="75" hiVel="127" end="156922" path="Resources/Trumpet - Ensemble Samples/5_F.wav" tuning="-0.10" volume="1.0dB" />
			<sample rootNote="91" loNote="90" hiNote="91" loVel="75" hiVel="127" end="156416" path="Resources/Trumpet - Ensemble Samples/5_G.wav" tuning="-0.10" />
			<sample rootNote="93" loNote="92" hiNote="93" loVel="75" hiVel="127" end="167643" path="Resources/Trumpet - Ensemble Samples/5_A.wav" tuning="-0.10" volume="3.5dB" />
			<sample rootNote="95" loNote="94" hiNote="95" loVel="75" hiVel="127" end="158708" path="Resources/Trumpet - Ensemble Samples/5_B.wav" tuning="-0.10" volume="1.0dB" />
			<sample rootNote="97" loNote="96" hiNote="96" loVel="75" hiVel="127" end="130560" path="Resources/Trumpet - Ensemble Samples/6_Db.wav" tuning="-0.10" volume="1.0dB" />
		</group>
		<group name="Group 10">
			<sample rootNote="70" loNote="66" hiNote="72" loVel="0" hiVel="127" end="123378" path="Resources/Trumpet - Ensemble Samples/3_Bb_p.wav" tuning="-0.10" volume="3.5dB" />
			<sample rootNote="75" loNote="73" hiNote="77" loVel="0" hiVel="127" end="119073" path="Resources/Trumpet - Ensemble Samples/4_Eb_p.wav" tuning="-0.10" volume="3.5dB" />
			<sample rootNote="80" loNote="78" hiNote="82" loVel="0" hiVel="127" end="94724" path="Resources/Trumpet - Ensemble Samples/4_Ab_p.wav" tuning="-0.10" volume="4.0dB" />
			<sample rootNote="85" loNote="83" hiNote="88" loVel="0" hiVel="127" end="135166" path="Resources/Trumpet - Ensemble Samples/5_Db_p.wav" tuning="-0.10" volume="2.5dB" />
			<sample rootNote="92" loNote="89" hiNote="96" loVel="0" hiVel="127" end="86130" path="Resources/Trumpet - Ensemble Samples/5_Ab_p.wav" tuning="-0.10" volume="1.0dB" />
		</group>
	</groups>
	<midi>
		<!-- Controls dynamics with modwheel -->
		<cc number="1">
			<binding type="control" level="ui" parameter="VALUE" position="6" translation="linear" translationOutputMin="0" translationOutputMax="1" />
		</cc>
		<!-- Controls attack with note velocity -->
		<note note="0-127">
			<binding type="amp" level="instrument" parameter="ENV_ATTACK" translation="table" translationTable="0.0,1;0.05,0.5;0.4,0;0.8,0;1.0,0" translationOutputMin="3" translationOutputMax="0" />
			<binding type="amp" level="instrument" parameter="ENV_ATTACK_CURVE" translation="linear" translationOutputMin="100" translationOutputMax="-100 " />
		</note>
	</midi>
	<!-- Initial dynamics values -->
	<tags>
		<tag name="3-dynamics-ff" volume="1" />
		<tag name="3-dynamics-mf" volume="0" />
		<tag name="3-dynamics-mp" volume="0" />
	</tags>
	<modulators />
</DecentSampler>
